<svg width="219" height="29" viewBox="0 0 219 29" fill="none" xmlns="http://www.w3.org/2000/svg">
  <path d="M23.6988 0.429233L17.5873 28.4903H6.13819L0 0.429233H8.19315L11.8761 21.247L15.5323 0.429233H23.6988Z" fill="#005CB9"/>
  <path d="M33.5999 14.9158H36.162C38.4304 14.9158 38.9108 13.2257 38.9108 11.2137V9.71137C38.9108 7.88714 38.2703 6.51897 36.162 6.51897H33.5999V14.9158ZM33.5999 21.0324V28.4903H26.0473V0.429233H36.242C42.5937 0.429233 46.4368 3.59483 46.4368 9.49677V12.2599C46.4368 18.1619 42.5937 21.0324 36.242 21.0324H33.5999Z" fill="#005CB9"/>
  <path d="M57.2987 21.7567H66.4259V28.4903H49.746V0.429233H57.2987V21.7567Z" fill="#022B55"/>
  <path d="M75.4731 19.8788C75.4731 21.703 76.5406 22.9371 78.5155 22.9371C80.4904 22.9371 81.5846 21.703 81.5846 19.8788V9.06753C81.5846 7.2433 80.4904 6.06289 78.5155 6.06289C76.5406 6.06289 75.4731 7.2433 75.4731 9.06753V19.8788ZM67.8404 9.49677C67.8404 3.35338 71.7902 0.0268224 78.5155 0.0268224C85.2408 0.0268224 89.2173 3.35338 89.2173 9.49677V19.4496C89.2173 25.6198 85.2408 28.9195 78.5155 28.9195C71.7902 28.9195 67.8404 25.6198 67.8404 19.4496V9.49677Z" fill="#022B55"/>
  <path d="M112.302 27.3904C110.301 28.1684 106.911 28.8927 103.389 28.8927C97.2236 28.8927 92.8468 25.6198 92.8468 19.0203V10.1674C92.8468 3.46069 97.704 0 104.509 0C107.845 0 110.514 0.751163 111.662 1.20722L110.648 7.4579C109.633 7.10915 107.578 6.57262 105.337 6.57262C102.321 6.57262 100.453 8.07493 100.453 10.5967V18.913C100.453 21.3543 101.841 22.5079 104.109 22.5079C104.75 22.5079 105.283 22.4542 105.79 22.3201V13.9769H112.249V27.3635L112.302 27.3904Z" fill="#022B55"/>
  <path d="M124.472 0.429233H116.919V28.4903H124.472V0.429233Z" fill="#022B55"/>
  <path d="M137.282 28.9195C133.412 28.9195 130.076 28.1415 128.475 27.605L129.409 21.1933C130.824 21.6226 133.386 22.2932 135.921 22.2932C138.109 22.2932 139.577 21.9177 139.577 20.2812C139.577 18.1082 137.495 18.4302 132.798 16.4181C130.05 15.2377 128.689 13.1452 128.689 9.14801C128.689 3.80944 132.025 0.0804765 138.35 0.0804765C142.166 0.0804765 144.995 0.83163 146.036 1.12673L145.182 7.6457C143.767 7.27012 141.419 6.73358 139.417 6.73358C137.255 6.73358 135.921 7.43108 135.921 8.82609C135.921 10.0601 136.615 10.6235 138.323 11.2137L141.018 12.099C145.048 13.4403 146.97 15.3987 146.97 20.2544C146.97 25.7003 144.247 29 137.282 29" fill="#022B55"/>
  <path d="M153.562 6.89454H147.237V0.429233H167.466V6.89454H161.141V28.4903H153.562V6.89454Z" fill="#022B55"/>
  <path d="M177.127 0.429233H169.574V28.4903H177.127V0.429233Z" fill="#022B55"/>
  <path d="M198.424 27.9806C196.903 28.4903 194.447 28.9195 191.832 28.9195C185.907 28.9195 181.504 25.593 181.504 19.3959V9.71137C181.504 3.35337 186.121 0.0268224 192.125 0.0268224C195.088 0.0268224 197.463 0.751158 198.21 1.01943L197.436 7.16281C197.036 7.02867 195.034 6.51896 192.979 6.51896C190.791 6.51896 189.136 7.91397 189.136 10.3552V18.7521C189.136 21.1129 190.684 22.4274 193.166 22.4274C195.194 22.4274 197.063 21.9177 197.837 21.7299L198.424 27.9806Z" fill="#022B55"/>
  <path d="M209.286 28.9195C205.416 28.9195 202.08 28.1415 200.479 27.605L201.413 21.1933C202.827 21.6226 205.389 22.2932 207.925 22.2932C210.113 22.2932 211.607 21.9177 211.607 20.2812C211.607 18.1082 209.526 18.4302 204.829 16.4181C202.08 15.2377 200.719 13.1452 200.719 9.14801C200.719 3.80944 204.055 0.0804765 210.38 0.0804765C214.196 0.0804765 216.998 0.83163 218.066 1.12673L217.212 7.6457C215.797 7.27012 213.449 6.73358 211.447 6.73358C209.286 6.73358 207.951 7.43108 207.951 8.82609C207.951 10.0601 208.645 10.6235 210.353 11.2137L213.049 12.099C217.079 13.4403 219 15.3987 219 20.2544C219 25.7003 216.278 29 209.312 29" fill="#022B55"/>
</svg>
