<svg width="1018" height="333" viewBox="0 0 1018 333" fill="none" xmlns="http://www.w3.org/2000/svg">
<path d="M378.959 133.027H362.206C361.663 133.027 361.227 133.47 361.227 134.006V176.834C361.227 177.377 361.67 177.813 362.206 177.813H378.959M323.007 243.465V124.502C323.007 123.966 322.572 123.523 322.029 123.523H307.304C306.768 123.523 306.325 123.958 306.325 124.502V243.465M323.007 243.465H306.325M323.007 243.465V252.862C323.007 253.406 322.564 253.842 322.029 253.842H306.332V243.465H306.325M299.005 128.804V73.5702C299.005 71.1548 296.92 69.2753 294.521 69.554C270.812 72.2553 161.022 86.9837 157.751 128.382M306.325 137.886L302.797 131.526C301.719 129.583 299.669 128.375 297.449 128.375H127.058L121.145 140.209L129.707 144.583C130.8 145.14 131.492 146.269 131.492 147.491V182.829C131.492 183.773 130.964 184.637 130.129 185.073L120.859 189.868C119.517 190.561 118.045 190.99 116.539 191.133L32.0645 199.066C28.9367 199.359 26.5443 201.988 26.5443 205.133V207.191M107.983 207.198H31.0433C25.6731 207.198 20.4528 208.999 16.2181 212.315L13.033 214.809V221.648C13.033 222.062 13.2687 222.441 13.6401 222.62L15.8824 223.713C16.0467 223.792 16.1466 223.956 16.1466 224.135V226.543C16.1466 226.8 15.9395 227.014 15.6753 227.014H14.1114C13.5187 227.014 13.033 227.5 13.033 228.094V230.373C13.033 230.966 13.5187 231.452 14.1114 231.452H15.6753C15.9324 231.452 16.1466 231.66 16.1466 231.924V234.146C16.1466 234.404 15.9395 234.618 15.6753 234.618H14.1114C13.5187 234.618 13.033 235.104 13.033 235.697V238.077C13.033 238.67 13.5187 239.156 14.1114 239.156H15.6753C15.9324 239.156 16.1466 239.363 16.1466 239.628V241.857C16.1466 242.115 15.9395 242.329 15.6753 242.329H14.1114C13.5187 242.329 13.033 242.815 13.033 243.408V245.638C13.033 246.231 13.5187 246.717 14.1114 246.717H15.6753C15.9324 246.717 16.1466 246.924 16.1466 247.188V249.597C16.1466 249.775 16.0467 249.94 15.8824 250.018L13.6401 251.112C13.2687 251.29 13.033 251.669 13.033 252.084V254.956C13.033 256.836 14.1756 258.522 15.9181 259.215L20.6314 261.095V235.747C20.6314 226.643 28.0083 219.261 37.1063 219.261H88.8305C111.454 219.261 129.793 237.612 129.793 260.252V261.095H207.64C208.347 261.095 209.011 260.759 209.432 260.187L212.139 256.478C213.06 255.221 214.953 255.278 215.795 256.586L218.038 260.073C218.445 260.709 219.144 261.095 219.901 261.095H292.521C296.67 261.095 300.655 259.458 303.611 256.543L306.318 253.863M14.3256 222.948V227.007M14.3256 231.445V234.611M14.3256 239.156V242.322M14.3256 246.702V250.776M14.3256 280.726V281.712C14.3256 283.027 15.1469 284.192 16.3823 284.642L28.6653 289.08M20.6385 261.074V265.233M20.6385 253.155H23.3808V236.169C23.3808 228.865 29.2937 222.948 36.5921 222.948H105.877M121.145 140.216H112.275C109.904 140.216 107.983 142.138 107.983 144.511V215.716M107.983 160.426H110.797M107.983 169.23H110.797M124.301 141.824L116.11 191.183M226.086 128.382C219.787 128.382 214.681 133.492 214.681 139.795V250.304M144.954 125.423V128.382M154.402 125.423V128.382M295.878 293.81H405.268M316.744 285.878H405.267M320.301 256.271H421.485M327.585 256.271V183.137C327.585 181.421 326.656 179.842 325.157 179.013L323.014 177.827M370.097 177.827C370.097 177.827 368.054 210.793 327.585 228.329M374.103 177.827C374.103 177.827 365.519 209.52 327.578 215.859M316.744 280.097H378.959L387.129 285.8M406.339 280.097H399.376L396.277 285.878M305.482 280.097H302.455M473.51 256.271L479.33 251.776H531.975M482.286 242.515L487.492 251.776M526.591 242.515L541.616 248.332M489.727 295.304H509.066M576.915 256.271H610.665L613.343 259.387H623.198V280.097L613.764 283.477V293.811H593.14M591.933 279.497H598.839L602.781 282.912V285.878H593.14M588.57 256.271C588.57 256.271 602.788 267.72 602.788 285.878V293.811M598.425 256.271C598.425 256.271 608.101 267.72 608.101 285.878V293.811M410.038 256.271C410.038 256.271 395.82 267.72 395.82 285.878V293.811M400.183 256.271C400.183 256.271 390.507 267.72 390.507 285.878V293.811M23.3808 269.706C31.1505 251.112 49.4964 238.048 70.8916 238.048C99.3211 238.048 122.366 261.109 122.366 289.558V296.362H112.575M390.507 236.14L398.883 240.085C402.268 241.679 405.96 242.508 409.702 242.508H664.903C668.495 242.508 672.037 243.308 675.279 244.859L702.037 257.629C705.28 259.173 708.822 259.98 712.414 259.98H1068.21C1071.31 259.98 1074.33 259.058 1076.89 257.329L1083.35 252.97C1092.36 246.895 1102.97 243.644 1113.83 243.644C1125.32 243.644 1136.53 247.281 1145.83 254.027L1154.04 259.98H1174.87L1181.62 254.828C1191.11 247.574 1202.74 243.644 1214.69 243.644H1220.44C1232.16 243.644 1243.57 247.424 1252.97 254.42L1256.32 256.914C1259.01 258.908 1262.26 259.987 1265.6 259.987H1318.16C1323.64 259.987 1328.73 257.186 1331.67 252.562L1342.1 236.155M113.789 261.074H129.8V289.073H122.373M122.373 293.81H144.69L160.422 289.073H206.662M206.662 286.114H129.8M221.651 307.138V263.61M230.313 307.138V263.61M270.962 307.138V263.61M279.617 307.138V263.61M242.875 263.61V266.412H259.714V263.61M306.325 130.497H323.007M385.722 1.17871H1346.87C1350.61 1.17871 1353.64 4.20862 1353.64 7.94621V229.373C1353.64 233.11 1350.61 236.14 1346.87 236.14H385.722C381.987 236.14 378.959 233.11 378.959 229.373V7.94621C378.959 4.20862 381.987 1.17871 385.722 1.17871ZM1258.87 289.566C1258.87 312.907 1239.96 331.829 1216.64 331.829C1193.31 331.829 1174.4 312.907 1174.4 289.566C1174.4 266.224 1193.31 247.303 1216.64 247.303C1239.96 247.303 1258.87 266.224 1258.87 289.566ZM1247.58 289.566C1247.58 306.667 1233.73 320.53 1216.64 320.53C1199.55 320.53 1185.69 306.667 1185.69 289.566C1185.69 272.464 1199.55 258.601 1216.64 258.601C1233.73 258.601 1247.58 272.464 1247.58 289.566ZM1240.95 289.566C1240.95 303.004 1230.07 313.899 1216.64 313.899C1203.21 313.899 1192.32 303.004 1192.32 289.566C1192.32 276.127 1203.21 265.233 1216.64 265.233C1230.07 265.233 1240.95 276.127 1240.95 289.566ZM1220.4 289.566C1220.4 291.646 1218.72 293.332 1216.64 293.332C1214.56 293.332 1212.87 291.646 1212.87 289.566C1212.87 287.486 1214.56 285.8 1216.64 285.8C1218.72 285.8 1220.4 287.486 1220.4 289.566ZM318.708 60.2067L313.524 67.9819C311.631 70.8189 310.624 74.1491 310.624 77.5578V123.523H318.708V60.2067ZM5.19193 265.233H23.3808V276.531C23.3808 278.846 21.5026 280.726 19.1888 280.726H5.19193C2.87815 280.726 1 278.846 1 276.531V269.427C1 267.112 2.87815 265.233 5.19193 265.233ZM38.306 228.115H43.3692C44.5366 228.115 45.483 229.06 45.483 230.227C45.483 231.393 44.5366 232.338 43.3692 232.338H38.306C37.1386 232.338 36.1922 231.393 36.1922 230.227C36.1922 229.06 37.1386 228.115 38.306 228.115ZM110.797 145.147V184.516H111.961C112.954 184.516 113.754 183.715 113.754 182.722V146.941C113.754 145.947 112.954 145.147 111.961 145.147H110.797ZM137.684 142.746H197.456C199.464 142.746 201.091 144.374 201.091 146.383V251.097C201.091 253.106 199.464 254.735 197.456 254.735H137.684C135.676 254.735 134.049 253.106 134.049 251.097V146.383C134.049 144.374 135.676 142.746 137.684 142.746ZM140.162 146.183H194.986C196.465 146.183 197.664 147.383 197.664 148.863V182.379C197.664 183.859 196.465 185.059 194.986 185.059H140.162C138.683 185.059 137.484 183.859 137.484 182.379V148.863C137.484 147.383 138.683 146.183 140.162 146.183ZM178.582 208.884H191.672V211.207H178.582V208.884ZM238.44 238.784H247.974V243.465H238.44V238.784ZM281.873 230.223H291.407V234.904H281.873V230.223ZM286.644 231.96H290.05V233.167H286.644V231.96ZM242.925 240.521H246.331V241.729H242.925V240.521ZM225.386 183.494H247.56C249.622 183.494 251.294 185.167 251.294 187.231V249.418C251.294 251.482 249.622 253.156 247.56 253.156H225.386C223.323 253.156 221.651 251.482 221.651 249.418V187.231C221.651 185.167 223.323 183.494 225.386 183.494ZM265.313 211.207H293.078C295.149 211.207 296.827 212.887 296.827 214.959V236.19C296.827 238.262 295.149 239.942 293.078 239.942H265.313C263.242 239.942 261.564 238.262 261.564 236.19V214.959C261.564 212.887 263.242 211.207 265.313 211.207ZM205.183 202.124H207.504V227.479H205.183V202.124ZM138.562 125.423H156.094V123.63L138.562 122.115V125.423ZM309.867 265.011H312.36C314.781 265.011 316.744 266.976 316.744 269.399V286.972C316.744 289.395 314.781 291.359 312.36 291.359H309.867C307.446 291.359 305.482 289.395 305.482 286.972V269.399C305.482 266.976 307.446 265.011 309.867 265.011ZM320.301 253.849V259.115C320.301 260.502 319.172 261.631 317.787 261.631H311.545C310.16 261.631 309.032 260.502 309.032 259.115V253.849H320.301ZM295.878 265.011H299.17C300.984 265.011 302.462 266.483 302.462 268.306V288.072C302.462 289.887 300.991 291.367 299.17 291.367H295.878V265.011ZM513.679 254.027H484.893V257.558L493.826 274.494H505.374L513.679 258.601V254.027ZM1155.83 289.566C1155.83 312.907 1136.92 331.829 1113.6 331.829C1090.27 331.829 1071.36 312.907 1071.36 289.566C1071.36 266.224 1090.27 247.303 1113.6 247.303C1136.92 247.303 1155.83 266.224 1155.83 289.566ZM1144.54 289.566C1144.54 306.667 1130.69 320.53 1113.6 320.53C1096.51 320.53 1082.65 306.667 1082.65 289.566C1082.65 272.464 1096.51 258.601 1113.6 258.601C1130.69 258.601 1144.54 272.464 1144.54 289.566ZM1137.91 289.566C1137.91 303.004 1127.03 313.899 1113.6 313.899C1100.17 313.899 1089.28 303.004 1089.28 289.566C1089.28 276.127 1100.17 265.233 1113.6 265.233C1127.03 265.233 1137.91 276.127 1137.91 289.566ZM1117.36 289.566C1117.36 291.646 1115.67 293.332 1113.6 293.332C1111.52 293.332 1109.83 291.646 1109.83 289.566C1109.83 287.486 1111.52 285.8 1113.6 285.8C1115.67 285.8 1117.36 287.486 1117.36 289.566ZM1115.77 289.566C1115.77 290.769 1114.8 291.745 1113.6 291.745C1112.39 291.745 1111.42 290.769 1111.42 289.566C1111.42 288.362 1112.39 287.386 1113.6 287.386C1114.8 287.386 1115.77 288.362 1115.77 289.566ZM1124.16 276.467L1126.26 273.865C1124.03 272.064 1121.41 270.742 1118.55 270.021L1117.72 273.258C1120.12 273.865 1122.3 274.966 1124.16 276.467ZM1130.42 289.566C1130.42 290.78 1130.29 291.967 1130.04 293.11L1133.31 293.818C1133.6 292.446 1133.76 291.023 1133.76 289.566C1133.76 288.108 1133.58 286.6 1133.28 285.192L1130.02 285.914C1130.28 287.093 1130.43 288.308 1130.43 289.566H1130.42ZM1117.66 305.881L1118.47 309.118C1121.33 308.403 1123.96 307.088 1126.19 305.295L1124.11 302.686C1122.24 304.18 1120.05 305.28 1117.66 305.873V305.881ZM1101.75 301.514L1099.4 303.887C1101.44 305.916 1103.93 307.488 1106.68 308.496L1107.83 305.359C1105.53 304.516 1103.46 303.201 1101.75 301.514ZM1096.77 289.566C1096.77 288.515 1096.88 287.493 1097.06 286.493L1093.79 285.885C1093.56 287.079 1093.44 288.308 1093.44 289.566C1093.44 291.274 1093.67 292.917 1094.07 294.504L1097.31 293.689C1096.97 292.367 1096.78 290.995 1096.78 289.573L1096.77 289.566ZM1107.2 273.987L1105.93 270.9C1103.23 272.014 1100.82 273.708 1098.86 275.816L1101.3 278.089C1102.94 276.331 1104.95 274.916 1107.2 273.987ZM593.14 289.566C593.14 312.907 574.232 331.829 550.907 331.829C527.582 331.829 508.673 312.907 508.673 289.566C508.673 266.224 527.582 247.303 550.907 247.303C574.232 247.303 593.14 266.224 593.14 289.566ZM581.85 289.566C581.85 306.667 567.996 320.53 550.907 320.53C533.817 320.53 519.964 306.667 519.964 289.566C519.964 272.464 533.817 258.601 550.907 258.601C567.996 258.601 581.85 272.464 581.85 289.566ZM575.223 289.566C575.223 303.004 564.336 313.899 550.907 313.899C537.477 313.899 526.591 303.004 526.591 289.566C526.591 276.127 537.477 265.233 550.907 265.233C564.336 265.233 575.223 276.127 575.223 289.566ZM554.67 289.566C554.67 291.646 552.985 293.332 550.907 293.332C548.828 293.332 547.143 291.646 547.143 289.566C547.143 287.486 548.828 285.8 550.907 285.8C552.985 285.8 554.67 287.486 554.67 289.566ZM553.085 289.566C553.085 290.769 552.11 291.745 550.907 291.745C549.704 291.745 548.729 290.769 548.729 289.566C548.729 288.362 549.704 287.386 550.907 287.386C552.11 287.386 553.085 288.362 553.085 289.566ZM561.469 276.467L563.568 273.865C561.34 272.064 558.719 270.742 555.856 270.021L555.034 273.258C557.427 273.865 559.612 274.966 561.469 276.467ZM567.731 289.566C567.731 290.78 567.596 291.967 567.353 293.11L570.617 293.818C570.909 292.446 571.074 291.023 571.074 289.566C571.074 288.108 570.895 286.6 570.588 285.192L567.332 285.914C567.589 287.093 567.739 288.308 567.739 289.566H567.731ZM554.977 305.881L555.784 309.118C558.648 308.403 561.276 307.088 563.511 305.295L561.426 302.686C559.562 304.18 557.369 305.28 554.977 305.873V305.881ZM539.059 301.514L536.71 303.887C538.752 305.916 541.237 307.488 543.994 308.496L545.137 305.359C542.837 304.516 540.766 303.201 539.059 301.514ZM534.082 289.566C534.082 288.515 534.189 287.493 534.375 286.493L531.097 285.885C530.875 287.079 530.747 288.308 530.747 289.566C530.747 291.274 530.982 292.917 531.382 294.504L534.617 293.689C534.282 292.367 534.089 290.995 534.089 289.573L534.082 289.566ZM544.522 273.987L543.251 270.9C540.545 272.014 538.138 273.708 536.174 275.816L538.617 278.089C540.259 276.331 542.266 274.916 544.522 273.987ZM489.734 289.566C489.734 312.907 470.826 331.829 447.501 331.829C424.176 331.829 405.267 312.907 405.267 289.566C405.267 266.224 424.176 247.303 447.501 247.303C470.826 247.303 489.734 266.224 489.734 289.566ZM478.444 289.566C478.444 306.667 464.59 320.53 447.501 320.53C430.412 320.53 416.558 306.667 416.558 289.566C416.558 272.464 430.412 258.601 447.501 258.601C464.59 258.601 478.444 272.464 478.444 289.566ZM471.817 289.566C471.817 303.004 460.93 313.899 447.501 313.899C434.072 313.899 423.185 303.004 423.185 289.566C423.185 276.127 434.072 265.233 447.501 265.233C460.93 265.233 471.817 276.127 471.817 289.566ZM451.264 289.566C451.264 291.646 449.58 293.332 447.501 293.332C445.423 293.332 443.738 291.646 443.738 289.566C443.738 287.486 445.423 285.8 447.501 285.8C449.58 285.8 451.264 287.486 451.264 289.566ZM449.679 289.566C449.679 290.769 448.704 291.745 447.501 291.745C446.298 291.745 445.323 290.769 445.323 289.566C445.323 288.362 446.298 287.386 447.501 287.386C448.704 287.386 449.679 288.362 449.679 289.566ZM458.063 276.467L460.162 273.865C457.934 272.064 455.314 270.742 452.45 270.021L451.629 273.258C454.021 273.865 456.206 274.966 458.063 276.467ZM464.326 289.566C464.326 290.78 464.19 291.967 463.947 293.11L467.211 293.818C467.504 292.446 467.668 291.023 467.668 289.566C467.668 288.108 467.489 286.6 467.182 285.192L463.926 285.914C464.183 287.093 464.333 288.308 464.333 289.566H464.326ZM451.564 305.881L452.371 309.118C455.235 308.403 457.863 307.088 460.098 305.295L458.013 302.686C456.149 304.18 453.957 305.28 451.564 305.873V305.881ZM435.654 301.514L433.304 303.887C435.347 305.916 437.832 307.488 440.588 308.496L441.731 305.359C439.431 304.516 437.36 303.201 435.654 301.514ZM430.676 289.566C430.676 288.515 430.783 287.493 430.969 286.493L427.691 285.885C427.47 287.079 427.341 288.308 427.341 289.566C427.341 291.274 427.577 292.917 427.977 294.504L431.212 293.689C430.876 292.367 430.683 290.995 430.683 289.573L430.676 289.566ZM441.11 273.987L439.838 270.9C437.132 272.014 434.725 273.708 432.761 275.816L435.204 278.089C436.846 276.331 438.853 274.916 441.11 273.987ZM113.125 289.566C113.125 312.907 94.2166 331.829 70.8916 331.829C47.5667 331.829 28.6582 312.907 28.6582 289.566C28.6582 266.224 47.5667 247.303 70.8916 247.303C94.2166 247.303 113.125 266.224 113.125 289.566ZM101.835 289.566C101.835 306.667 87.9811 320.53 70.8916 320.53C53.8022 320.53 39.9485 306.667 39.9485 289.566C39.9485 272.464 53.8022 258.601 70.8916 258.601C87.9811 258.601 101.835 272.464 101.835 289.566ZM95.2077 289.566C95.2077 303.004 84.321 313.899 70.8916 313.899C57.4623 313.899 46.5756 303.004 46.5756 289.566C46.5756 276.127 57.4623 265.233 70.8916 265.233C84.321 265.233 95.2077 276.127 95.2077 289.566ZM74.6551 289.566C74.6551 291.646 72.9701 293.332 70.8916 293.332C68.8132 293.332 67.1282 291.646 67.1282 289.566C67.1282 287.486 68.8132 285.8 70.8916 285.8C72.9701 285.8 74.6551 287.486 74.6551 289.566ZM73.0697 289.566C73.0697 290.769 72.0946 291.745 70.8916 291.745C69.6887 291.745 68.7136 290.769 68.7136 289.566C68.7136 288.362 69.6887 287.386 70.8916 287.386C72.0946 287.386 73.0697 288.362 73.0697 289.566ZM81.4536 276.467L83.5531 273.865C81.325 272.064 78.7042 270.742 75.8406 270.021L75.0193 273.258C77.4116 273.865 79.5969 274.966 81.4536 276.467ZM87.7165 289.566C87.7165 290.78 87.5808 291.967 87.338 293.11L90.6016 293.818C90.8944 292.446 91.0586 291.023 91.0586 289.566C91.0586 288.108 90.8801 286.6 90.573 285.192L87.3166 285.914C87.5737 287.093 87.7236 288.308 87.7236 289.566H87.7165ZM74.9622 305.881L75.7691 309.118C78.6328 308.403 81.2608 307.088 83.496 305.295L81.4107 302.686C79.5469 304.18 77.3545 305.28 74.9622 305.873V305.881ZM59.0443 301.514L56.6948 303.887C58.7372 305.916 61.2224 307.488 63.9789 308.496L65.1215 305.359C62.822 304.516 60.751 303.201 59.0443 301.514ZM54.0668 289.566C54.0668 288.515 54.1739 287.493 54.3596 286.493L51.0818 285.885C50.8604 287.079 50.7318 288.308 50.7318 289.566C50.7318 291.274 50.9675 292.917 51.3674 294.504L54.6024 293.689C54.2668 292.367 54.0739 290.995 54.0739 289.573L54.0668 289.566ZM64.5073 273.987L63.2362 270.9C60.5297 272.014 58.123 273.708 56.1592 275.816L58.6015 278.089C60.244 276.331 62.2507 274.916 64.5073 273.987ZM1218.82 289.566C1218.82 290.769 1217.84 291.745 1216.64 291.745C1215.43 291.745 1214.46 290.769 1214.46 289.566C1214.46 288.362 1215.43 287.386 1216.64 287.386C1217.84 287.386 1218.82 288.362 1218.82 289.566ZM1227.2 276.467L1229.3 273.865C1227.07 272.064 1224.45 270.742 1221.59 270.021L1220.77 273.258C1223.16 273.865 1225.34 274.966 1227.2 276.467ZM1233.46 289.566C1233.46 290.78 1233.33 291.967 1233.08 293.11L1236.35 293.818C1236.64 292.446 1236.8 291.023 1236.8 289.566C1236.8 288.108 1236.63 286.6 1236.32 285.192L1233.06 285.914C1233.32 287.093 1233.47 288.308 1233.47 289.566H1233.46ZM1220.7 305.881L1221.51 309.118C1224.37 308.403 1227 307.088 1229.23 305.295L1227.15 302.686C1225.29 304.18 1223.09 305.28 1220.7 305.873V305.881ZM1204.79 301.514L1202.44 303.887C1204.48 305.916 1206.97 307.488 1209.72 308.496L1210.87 305.359C1208.57 304.516 1206.5 303.201 1204.79 301.514ZM1199.81 289.566C1199.81 288.515 1199.92 287.493 1200.11 286.493L1196.83 285.885C1196.61 287.079 1196.48 288.308 1196.48 289.566C1196.48 291.274 1196.71 292.917 1197.11 294.504L1200.35 293.689C1200.01 292.367 1199.82 290.995 1199.82 289.573L1199.81 289.566ZM1210.25 273.987L1208.98 270.9C1206.27 272.014 1203.86 273.708 1201.9 275.816L1204.34 278.089C1205.98 276.331 1207.99 274.916 1210.25 273.987ZM133.706 265.511H145.211V279.139H133.706V265.511ZM295.878 307.138H206.662V263.61H295.878V307.138ZM223.215 307.138H228.757V309.211H223.215V307.138ZM272.833 307.138H277.746V309.211H272.833V307.138Z" stroke="white" stroke-width="0.5" stroke-miterlimit="10"/>
</svg>
